FILE "Spellcross000.bin" BINARY
  TRACK 01 MODE1/2352
    INDEX 01 00:00:00
  TRACK 02 AUDIO
    INDEX 01 41:02:09
  TRACK 03 AUDIO
    INDEX 01 42:30:71
  TRACK 04 AUDIO
    INDEX 01 48:09:26
  TRACK 05 AUDIO
    INDEX 01 53:15:15
  TRACK 06 AUDIO
    INDEX 01 60:29:14
  TRACK 07 AUDIO
    INDEX 01 64:59:62
